<?xml version="1.0" standalone="no"?>
<!DOCTYPE svg PUBLIC "-//W3C//DTD SVG 20010904//EN"
 "http://www.w3.org/TR/2001/REC-SVG-20010904/DTD/svg10.dtd">
<svg version="1.0" xmlns="http://www.w3.org/2000/svg"
 width="1024.000000pt" height="1024.000000pt" viewBox="0 0 1024.000000 1024.000000"
 preserveAspectRatio="xMidYMid meet">

<g transform="translate(0.000000,1024.000000) scale(0.100000,-0.100000)"
fill="#000000" stroke="none">
<path d="M0 5120 l0 -5120 5120 0 5120 0 0 5120 0 5120 -5120 0 -5120 0 0
-5120z m4980 2515 l0 -365 -515 0 -515 0 0 -1437 0 -1438 -430 0 -430 0 0
1438 0 1437 -520 0 -520 0 0 365 0 365 1465 0 1465 0 0 -365z m3180 59 c0
-299 -1 -308 -22 -343 -12 -20 -104 -135 -203 -256 -100 -121 -486 -593 -860
-1050 -373 -456 -701 -856 -728 -887 l-49 -58 951 0 951 0 2 -360 3 -360
-1517 0 -1518 0 0 258 c0 202 3 269 15 308 11 36 45 85 128 185 61 75 195 239
297 365 101 126 263 326 360 444 97 118 337 413 535 655 197 242 398 488 447
547 48 59 88 109 88 110 0 2 -298 3 -662 3 -365 0 -765 1 -890 3 l-228 3 0
369 0 370 1450 0 1450 0 0 -306z m-3680 -4291 l0 -197 33 31 c52 50 94 66 183
71 104 6 171 -15 225 -69 64 -64 69 -97 69 -446 l0 -303 -110 0 -110 0 0 270
c0 290 -4 321 -51 354 -36 24 -118 21 -160 -7 -68 -45 -74 -71 -77 -359 l-3
-258 -115 0 -114 0 0 555 0 555 115 0 115 0 0 -197z m1430 92 l0 -106 -232
-307 c-127 -169 -247 -326 -266 -349 l-34 -43 273 0 274 0 -2 -97 -1 -98 -426
-3 -426 -2 0 91 0 90 270 362 271 362 -248 5 -248 5 -3 98 -3 97 401 0 400 0
0 -105z m-3247 -2 l-1 -98 -161 -3 -161 -2 0 -450 0 -450 -120 0 -121 0 3 450
3 450 -162 0 -163 0 0 100 0 100 443 0 442 0 -2 -97z m445 -212 c122 -54 202
-211 202 -398 l0 -43 -280 0 -279 0 6 -32 c17 -94 91 -158 182 -158 55 0 125
30 141 59 10 19 20 21 115 21 119 0 124 -4 85 -79 -29 -57 -77 -101 -150 -135
-61 -29 -72 -31 -185 -31 -109 0 -125 2 -178 27 -80 38 -158 115 -193 191 -24
53 -29 78 -32 169 -3 88 0 119 17 175 36 117 128 212 240 248 72 23 241 15
309 -14z m864 -5 c101 -48 168 -144 168 -240 l0 -36 -98 0 -99 0 -12 39 c-21
72 -95 112 -178 96 -158 -29 -196 -356 -53 -453 30 -21 44 -23 104 -20 62 3
71 7 98 36 16 18 31 46 35 63 l6 29 103 0 104 0 0 -28 c0 -49 -30 -119 -71
-166 -107 -121 -326 -152 -490 -70 -63 31 -143 121 -170 192 -27 69 -36 204
-20 282 32 152 134 266 268 300 21 5 85 8 143 7 91 -3 113 -7 162 -31z m2590
2 c157 -72 226 -204 216 -414 -6 -133 -32 -200 -107 -275 -82 -81 -142 -103
-291 -104 -109 0 -119 2 -182 32 -123 58 -187 148 -209 295 -15 90 -2 206 30
281 25 58 102 142 156 170 77 39 116 47 225 44 88 -3 114 -8 162 -29z m925 4
c22 -12 55 -38 71 -58 52 -63 57 -99 57 -429 l0 -300 -112 -3 -113 -3 0 263
c0 149 -5 279 -10 300 -17 59 -53 81 -127 76 -49 -3 -68 -9 -89 -28 -54 -50
-58 -73 -62 -353 l-4 -258 -109 3 c-60 2 -109 6 -109 11 0 4 0 183 0 397 l0
390 110 0 110 0 0 -42 0 -42 33 31 c63 60 106 73 222 70 69 -3 100 -8 132 -25z
m750 13 c110 -33 188 -123 223 -259 11 -44 20 -105 20 -138 l0 -58 -276 0
-277 0 7 -42 c14 -90 85 -148 177 -148 53 0 123 30 139 59 10 19 19 21 120 21
l109 0 -9 -31 c-25 -86 -80 -143 -185 -191 -43 -20 -66 -23 -170 -23 -109 0
-125 2 -177 27 -80 37 -122 71 -162 132 -52 79 -69 150 -64 270 6 125 31 195
95 266 49 55 110 95 176 115 57 18 192 18 254 0z"/>
<path d="M2870 3129 c-47 -19 -86 -66 -104 -126 l-7 -23 166 0 167 0 -7 33
c-22 100 -120 154 -215 116z"/>
<path d="M6289 3107 c-19 -12 -45 -43 -59 -67 -22 -40 -25 -57 -25 -150 0
-114 10 -146 62 -194 53 -49 157 -53 221 -7 53 37 67 82 67 211 0 104 -2 119
-24 154 -35 56 -74 76 -147 76 -47 0 -69 -5 -95 -23z"/>
<path d="M8034 3122 c-42 -20 -77 -65 -89 -114 l-7 -28 162 0 163 0 -7 33
c-19 99 -129 152 -222 109z"/>
</g>
</svg>
